/* XPM */
static char *ccd461f41eee4a9ee689f865683ebbcenn4cGMAJVPvgE3vd[] = {
/* columns rows colors chars-per-pixel */
"64 64 134 2 ",
"   c None",
".  c #000000",
"X  c #000C00",
"o  c #080F08",
"O  c #061106",
"+  c #0B150B",
"@  c #0E190E",
"#  c #151515",
"$  c #141D14",
"%  c #1A1C1A",
"&  c #162116",
"*  c #1B231B",
"=  c #1F281F",
"-  c #222422",
";  c #242B24",
":  c #2B2D2B",
">  c #273027",
",  c #2C332C",
"<  c #333533",
"1  c #343B34",
"2  c #3B3D3B",
"3  c #3C423C",
"4  c #434443",
"5  c #444A44",
"6  c #4B4C4B",
"7  c #4C524C",
"8  c #535453",
"9  c #565A56",
"0  c #5B5C5B",
"q  c #5E625E",
"w  c #626362",
"e  c #676867",
"r  c #656A65",
"t  c #686868",
"y  c #686A68",
"u  c #696A69",
"i  c #696B69",
"p  c #696C69",
"a  c #696E69",
"s  c #6A6C6A",
"d  c #6A6E6A",
"f  c #6B6F6B",
"g  c #6D6D6D",
"h  c gray43",
"j  c #6E6F6E",
"k  c #6F6F6F",
"l  c #6A6C6A",
"z  c #6C706C",
"x  c #6D706D",
"c  c #6D716D",
"v  c #6D726D",
"b  c gray44",
"n  c #717271",
"m  c #727272",
"M  c #727372",
"N  c gray45",
"B  c #727672",
"V  c #737773",
"C  c #747474",
"Z  c gray46",
"A  c #767676",
"S  c #767776",
"D  c #777777",
"F  c #737473",
"G  c #767876",
"H  c #767976",
"J  c #737873",
"K  c gray47",
"L  c #787A78",
"P  c #797A79",
"I  c #797B79",
"U  c #7C7C7C",
"Y  c gray49",
"T  c gray50",
"R  c #7B7D7B",
"E  c #7D807D",
"W  c #7E827E",
"Q  c #808080",
"!  c gray51",
"~  c #838583",
"^  c #848484",
"/  c gray52",
"(  c #848784",
")  c #868686",
"_  c #828282",
"`  c #848984",
"'  c #888888",
"]  c #898989",
"[  c #8A8B8A",
"{  c #8B8C8B",
"}  c gray55",
"|  c #8E8E8E",
" . c gray56",
".. c #8A8B8A",
"X. c #8F928F",
"o. c #8E918E",
"O. c #909090",
"+. c #939493",
"@. c gray58",
"#. c #959595",
"$. c #949694",
"%. c #959695",
"&. c #959795",
"*. c #949494",
"=. c #969996",
"-. c #949994",
";. c #989898",
":. c #9A9D9A",
">. c gray61",
",. c #9C9D9C",
"<. c #9E9F9E",
"1. c #9F9F9F",
"2. c #9D9D9D",
"3. c #9FA29F",
"4. c #A6A7A6",
"5. c #A2A3A2",
"6. c gray67",
"7. c #AEAEAE",
"8. c #AFAFAF",
"9. c #AAACAA",
"0. c #B1B1B1",
"q. c #B2B2B2",
"w. c gray70",
"e. c #B4B5B4",
"r. c gray73",
"t. c #BBBBBB",
"y. c #C0C0C0",
"u. c #C1C1C1",
"i. c #C6C6C6",
"p. c #C4C4C4",
"a. c #CCCDCC",
"s. c #DBDBDB",
"d. c gray89",
"f. c gray96",
/* pixels */
"                                                                                                                                ",
"                                              Q n 0 6 2 b l b 0 4 4 o 1 0 0 w t C                                               ",
"                                        Y l 0 6 2 2 1 X k 9 9 0 k : X 0 6 : : 8 4 4 0 U                                         ",
"                                    U U 4 9 2 : 6 0 4 o w 8 n : 0 * $ w q < 4 6 1 1 : * 9 C                                     ",
"                                  w : $ - ; 2 8 2 : 6 $ 6 c k ) 4 + : q 4 4 2 : 8 * $ , q 7 J                                   ",
"                              n 4 , 6 - , * $ % ; 2 : ; ; 9 b : 4 o 2 6 4 4 % # ; 0 3.w.~ X k ;.n                               ",
"                            e c $ 4 < 6 6 4 4 % - X & % * 0 2 2 : X 1 , $ > w ^ w.+.y.+., 5 1 d ! t                             ",
"                          w q ;.J # 2 - % - % - % o < + X X X X X X > -.E ; w <.w.%.-.q @ 3.<.1 d <.w                           ",
"                        t d ! ] ;.; * - - # + o : 4 8 6 4 ^ w 4 4 8 4 d r.%.~ 5 * 3 z @ d <.] <., 5 5.w                         ",
"                      w k ! ] t t 0 + : O X - 4 6 4 1 . . . . . . . . . . 2 0 8.q.q $ = ] ] t 3.d , 9 ! w                       ",
"                    w q ] ] w w ] t 1 X * 2 6 4 # . . . . . . . . . . . . . . % 6 k > H ] t d t t d ; 5 d t                     ",
"                  k , X X X X X X X X X $ 4 - . . . . . . . . . . . . . . . . . . * 4 & X X X X X X X X X : k                   ",
"                  n } } Y Y q 1 2 Q 9 9 C . . . . . . . . . . . . . . . . . . . . . . 8 w.$ :.6.i.y.y.6.4.J 9                   ",
"                n 9 A A Y c q + ..Q 4 < . . . . . . . . . . . . . . . . . . . . . . . . < J & :.8.y.i.4.X.3 J o.                ",
"              A 3 | k A U 6 1 < ) 9 # . . . . . . . . . . . . . . . . . . . . . . . . . . % 6 4 8.8.i.y.%.; %.%.!               ",
"              K @ A ] k Y 6 + ] l : . . . . . . . . . . . . . . . . . . . . . . . . . . . . 1 4 w 8.i.6.+.* ^ ;.!               ",
"            Y 8 $ k A A 6 , 5 8 8 . . . . . . . . . . . . . . . . . . . . . . . . . . . . . . 6 $ J i.-.w 5 :.%.! !             ",
"            U | 1 7 { 9 5 + K 8 . . . . . . . . . . . . . . . . . . . . . . . . . . . . . . . . 4 & ( %.5 ] d ;.O.Y             ",
"            Y 2 4 * 9 { < , ! * . . . . . . . . . . . . . . . . . . . . . . . . . . . . . . . . , < 3 +.; <.>.Q <.0             ",
"          U 0 0 w + 7 9 + { k . . . . . . . . . . . . . . . . . . . . . . . . . . . . . . . . . . 6 X w 5 >.>.>.U Y Y           ",
"          b 0 6 2 - 2 < , ^ % . . . . . . . . . . . . . . . . . . . . . . . . . . . . . . . . . . % : X U ;.;.<.Q 7 Y           ",
"          C 2 2 0 2 * @ q t . . . . . . . . . . . . . . . . . . . . . . . . . . . . . . . . . . . . 9 $ ^ <.<.| 7 W A           ",
"          l t 4 0 t + 3 ^ 4 . . . . . . . . . . . . . . . . . . . . . . . . . . . . . . . . . . . . 4 5 ! A :.! w ! w           ",
"          1 < 8 8 t $ q ^ . . . . . . . . . . . . . . . . . . . . . . . . . . . . . . . . . . . . . . q d Y w 5 ; * 1           ",
"          * X X $ ; , 5 6 . . . . . . . . . . . . . . . . . . . . . . . . . . . . . . . . . . . . . . 0 5 , X 1 9 d ;.          ",
"          O ] 5 < ; X X 4 . . . . . . . . . . . . . . . . . . . . . . . . . . . . . . . . . . . . . . 4 5 t ! >.^ t <.          ",
"          X ^ A { t ^ X 0 . . . . . . . . . . . . . . . . . . . . . . . . . . . . . . . . . . . . . . 4 5.<.^ <.! Y <.          ",
"          X k Y 9 8 t X 4 . . . . . . . . . . . . . . . . . . . . . . . . . . . . . . . . . . . . . . : B k ! <.W ! Q           ",
"          X ] Y 7 < @ X % . . . . . . . . . . . . . . . . . . . . . . . . . . . . . . . . . . . . . . % + A <.~ e k t           ",
"          X 9 ; 1 9 9 * o . . . . . . . . . . . . . . . . . . . . . . . . . . . . . . . . . . . . . . . 2 ; k ! ^ ' )           ",
"          q R r.3.r.a & . . . . . . . . . . . . . . . . . . . . . . . . . . . . . . . . . . . . . . . . * < ; d c k d           ",
"          w.a.( r.<.9 * . . . . . . . . . . . . . . . . . . . . . . . . . . . . . . . . . . . . . . . . X + + 5 8 5 5           ",
"          a.~ e a.~ , < . . . . . . . . . . . . . . . . . . . . . . . . . . . . . . . . . . . . . . . . w 3 @ X X 3 ,           ",
"          r.~ :.<.:.< : . . . . . . . . . . . . . . . . . . . . . . . . . . . . . . . . . . . . . . . . | n 3 1 q.r.e.          ",
"          q.a :.! :.@ 1 . . . . . . . . . . . . . . . . . . . . . . . . . . . . . . . . . . . . . . . . J q * ~ r.3.;.          ",
"          <.:.r.<.~ X 4 . . . . . . . . . . . . . . . . . . . . . . . . . . . . . . . . . . . . . . . . J 6 = ( e.5.!           ",
"          ( W a e w X 2 . . . . . . . . . . . . . . . . . . . . . . . . . . . . . . . . . . . . . . . . 7 , 9 | ;.<.<.          ",
"          W ~ w 3 @ X * . . . . . . . . . . . . . . . . . . . . . . . . . . . . . . . . . . . . . . . . q X | o.| | n           ",
"          3 @ 1 J q.X d . . . . . . . . . . . . . . . . . . . . . . . . . . . . . . . . . . . . . . . . X X @ < q w n           ",
"          W i.d.a.w.X ! . . . . . . . . . . . . . . . . . . . . . . . . . . . . . . . . . . . . . . . . 8 * w 6 & + +           ",
"          a.d.a.i.8.O ] . . . . . . . . . . . . . . . . . . . . . . . . . . . . . . . . . . . . . . . . 4 : m 8 0 b 2           ",
"          d.a.d.i.a.X -.. . . . . . . . . . . . . . . . . . . . . . . . . . . . . . . . . . . . . . . . 7 - w w 9 6 0           ",
"          i.6.i.q.8.X ^ . . . . . . . . . . . . . . . . . . . . . . . . . . . . . . . . . . . . . . . . : < w 6 b q 4           ",
"          d.9.9.-.q.X ^ . . . . . . . . . . . . . . . . . . . . . . . . . . . . . . . . . . . . . . . . $ < N q 9 < 6           ",
"          9.d.i.7.8.X 3.. . . . . . . . . . . . . . . . . . . . . . . . . . . . . . . . . . . . . . . . - 3 6 6 b q 4           ",
"          9.i.s.y.-.X ( . . . . . . . . . . . . . . . . . . . . . . . . . . . . . . . . . . . . . . . . X w 7 4 6 q 6           ",
"          y.s.( q $ X R . . . . . . . . . . . . . . . . . . . . . . . . . . . . . . . . . . . . . . . . o 6 8 6 1 < <           ",
"          7 = 5 ( e.X $ . . . . . . . . . . . . . . . . . . . . . . . . . . . . . . . . . . . . . . . . . 6 6 6 6 < 2           ",
"          X f.f.w.s.X 1 . . . . . . . . . . . . . . . . . . . . . . . . . . . . . . . . . . . . . . . . X X + + * * ;           ",
"          X s.s.s.a.& $ . . . . . . . . . . . . . . . . . . . . . . . . . . . . . . . . . . . . . . . . X 6.~ B 8 4 <           ",
"          X s.f.y.a.7 = . . . . . . . . . . . . . . . . . . . . . . . . . . . . . . . . . . . . . . . . X O.6.O.+.%.+.          ",
"          X s.y.f.q.5 J . . . . . . . . . . . . . . . . . . . . . . . . . . . . . . . . . . . . . . . . X %.O.W 4.+.d           ",
"          X y.s.s.-.q r . . . . . . . . . . . . . . . . . . . . . . . . . . . . . . . . . . . . . . . . X w 6.t O.Q c           ",
"          X s.y.9.p.a 5 . . . . . . . . . . . . . . . . . . . . . . . . . . . . . . . . . . . . . . . . @ 9 O.! ! ! W           ",
"          X s.s.9.-.e < . . . . . . . . . . . . . . . . . . . . . . . . . . . . . . . . . . . . . . . . * 3 W W k Y O.          ",
"          X 9.J 7 3 X X . . . . . . . . . . . . . . . . . . . . . . . . . . . . . . . . . . . . . . . . < 1 -.+.O.9 k           ",
"          X X X & q a 3 3., = & X & , - 9 - - - * $ + X * 1 4 6 9 O 0 6 t q 6 q 4 6 $ X 3 U ' ' ] t J 9 3 ; Y ! ! d c           ",
"          X 7 4.r.r.3 v i.t.W q X O X $ - o + X < 9 6 1 4 $ - 2 1 : ; 8 6 , q : 4 % O X X X X X X X X X X X X & , ; 9           ",
"          s.s.s.r.t.O 4.i.i.W 9.H q & O , 9 o.>.~ ~ 9 1 5.3.3 + 2 9 o 6 8 : < # X 3 R X <.e.} 5.5.5.5.] <.X w.R R d 3           ",
"          s.5.t.3.W & r.i.{ 3.3.[ 9.v 3 e.e.>.>.:.~ 5 , 1.5.B R ; + + - : $ $ 6 <.<.] X e.1.] ] ] A A <.A X ] ] w.:.^           ",
"          s.s.3.3.3 3 r.r.4.9.W <.6.3 9 <.t e.k ' ! 3 9 ] ! ! ;.] W * X * | <.^ <.>.Y X e.] ] } 3.} A ] | X 1.<.A n <.          ",
"          p.y.y.3.X W r.3.r.` ` r.<.; o.e.Q <.W Q e ; e ;.! ;.] t Y n X <.e.e.<.! d k ; d 1.<.} ] 1.3.A ] X ] 5.<.' <.          ",
"            4.t.z X 4.3.4.v r.v c R X r.^ ^ :.8 ~ 8 ; r ;.! Y ! ] ! ) X e.%.Q t ! t 9 , d 1.<.e.] 5.] } A X 5.5.^ (             ",
"                                                                                                                                "
};
